<svg width="54" height="54" xmlns="http://www.w3.org/2000/svg" baseProfile="tiny-ps" version="1.2">
 <title>Module-1-Facts</title>

 <g>
  <title>Layer 1</title>
  <g>
   <title>Module-1-Facts</title>
   <g id="svg_5">
    <g id="svg_6">
     <g id="svg_7">
      <path fill="#484d52" d="m44.43346,40.34125l-12.73,-12.57c-0.12,-0.12 -0.24,-0.22 -0.38,-0.32l2.26,-2.34c0.11,-0.12 0.22,-0.24 0.32,-0.36c2.99,1.12 6.5,0.49 8.91,-1.89c1.75,-1.73 2.64,-4.12 2.42,-6.57c-0.02,-0.27 -0.21,-0.51 -0.47,-0.61c-0.26,-0.09 -0.56,-0.03 -0.76,0.17l-4.08,4.02l-4.13,-1.03l-1.16,-4.2l4.07,-4.02c0.2,-0.2 0.26,-0.49 0.17,-0.75c-0.1,-0.27 -0.34,-0.45 -0.62,-0.47c-2.47,-0.21 -4.9,0.66 -6.65,2.39c-2.41,2.37 -3.04,5.84 -1.92,8.79c-0.12,0.1 -0.24,0.21 -0.36,0.33l-3.32,3.14l-6.09,-6.01c-0.07,-0.08 -0.15,-0.14 -0.24,-0.2c0.07,-0.13 0.14,-0.26 0.21,-0.39c1.29,0.25 3.63,-2.23 5.63,-4.2l-5.81,-5.74c-2.61,2.57 -4.51,4.29 -4.26,5.56c-0.6,0.29 -1.13,0.64 -1.5,1.01l-0.82,0.81c-0.53,0.53 -0.85,1.18 -0.97,1.86c-0.08,0.09 -0.16,0.19 -0.24,0.29l-0.31,0.38c0,0.01 -0.03,0.04 -0.04,0.05l-0.27,0.38c-0.18,0.23 -0.33,0.48 -0.47,0.72c-0.06,0.09 -0.11,0.18 -0.17,0.27c-0.01,0.01 -0.02,0.03 -0.02,0.04l-0.13,0.23c-0.15,0.28 -0.3,0.56 -0.43,0.88l-0.02,0.05c-0.16,0.36 -0.32,0.74 -0.43,1.14l-0.06,0.17c-0.04,0.14 -0.09,0.29 -0.13,0.46l-0.11,0.55c-0.09,0.35 -0.11,0.69 -0.14,0.99l-0.02,0.2c-0.04,0.31 -0.03,0.61 -0.02,0.87c0.01,0.08 0.01,0.17 0.02,0.29c0,0.04 0,0.09 0,0.14c0,0.11 0.01,0.25 0.03,0.38l0.07,0.45c0.02,0.09 0.03,0.17 0.04,0.25c0.03,0.19 0.06,0.38 0.11,0.55l0.3,1.02c0.09,0.31 0.39,0.52 0.71,0.5c0.18,-0.02 0.33,-0.09 0.45,-0.2c0.1,-0.11 0.17,-0.24 0.19,-0.39l0.16,-1.04c0.01,-0.08 0.05,-0.2 0.08,-0.33c0.03,-0.09 0.06,-0.18 0.07,-0.25l0.11,-0.39c0.02,-0.05 0.04,-0.1 0.07,-0.16c0.02,-0.04 0.04,-0.09 0.06,-0.14c0.04,-0.09 0.07,-0.17 0.1,-0.25c0.07,-0.17 0.14,-0.32 0.23,-0.48c0.04,-0.07 0.09,-0.14 0.12,-0.21c0.11,-0.18 0.2,-0.35 0.32,-0.49c0.01,-0.01 0.01,-0.02 0.02,-0.03l0.26,-0.35c0.05,-0.06 0.11,-0.13 0.17,-0.19c0.04,-0.05 0.08,-0.09 0.13,-0.15c0.16,-0.18 0.33,-0.34 0.51,-0.49l0.09,-0.09c0.13,-0.11 0.28,-0.23 0.43,-0.34c0.07,-0.05 0.13,-0.1 0.19,-0.14c0.08,-0.05 0.16,-0.1 0.23,-0.15c0.14,-0.1 0.27,-0.18 0.41,-0.25l0.3,-0.17l0.31,-0.15c0.11,-0.06 0.22,-0.1 0.32,-0.14c0.06,-0.03 0.11,-0.05 0.17,-0.07c0.05,-0.02 0.1,-0.04 0.15,-0.06c0.07,-0.02 0.13,-0.04 0.21,-0.07l0.08,-0.01c0.09,0.14 0.2,0.28 0.33,0.41l6.02,5.95l-12.86,12.19c0,0.01 -0.01,0.01 -0.01,0.02c-1.6,1.58001 -1.87,3.89 -0.26,5.47c1.6,1.58 3.79,1.18 5.39,-0.4c0.01,-0.01 0.01,-0.01 0.02,-0.02l11.35,-11.8c0.06,0.08 0.13,0.16 0.2,0.23l12.72,12.56c1.43,1.41 3.74,1.41 5.17,0c1.42,-1.41 1.42,-3.69 0,-5.09l0,0zm-31.12,2.81001c-0.59,0.59 -1.55,0.59 -2.13,0c-0.59,-0.58001 -0.59,-1.52 0,-2.10001c0.58,-0.57999 1.54,-0.57999 2.13,0c0.59,0.58 0.59,1.52 0,2.10001l0,0zm0,0" class="shp0" id="svg_8"/>
     </g>
    </g>
   </g>
  </g>
 </g>
</svg>