<svg version="1.2" baseProfile="tiny-ps" xmlns="http://www.w3.org/2000/svg" viewBox="0 0 38 39" width="38" height="39">
	<title>Module-1-Facts</title>
	<style>
		tspan { white-space:pre }
		.shp0 { fill: #484d52 } 
	</style>
	<g id="Module-1-Facts">
		<g id="Fact 2">
			<g id="Icon">
				<path id="Form 5" class="shp0" d="M36.93 32.84L24.2 20.27C24.08 20.15 23.96 20.05 23.82 19.95L26.08 17.61C26.19 17.49 26.3 17.37 26.4 17.25C29.39 18.37 32.9 17.74 35.31 15.36C37.06 13.63 37.95 11.24 37.73 8.79C37.71 8.52 37.52 8.28 37.26 8.18C37 8.09 36.7 8.15 36.5 8.35L32.42 12.37L28.29 11.34L27.13 7.14L31.2 3.12C31.4 2.92 31.46 2.63 31.37 2.37C31.27 2.1 31.03 1.92 30.75 1.9C28.28 1.69 25.85 2.56 24.1 4.29C21.69 6.66 21.06 10.13 22.18 13.08C22.06 13.18 21.94 13.29 21.82 13.41L18.5 16.55L12.41 10.54C12.34 10.46 12.26 10.4 12.17 10.34C12.24 10.21 12.31 10.08 12.38 9.95C13.67 10.2 16.01 7.72 18.01 5.75L12.2 0.01C9.59 2.58 7.69 4.3 7.94 5.57C7.34 5.86 6.81 6.21 6.44 6.58L5.62 7.39C5.09 7.92 4.77 8.57 4.65 9.25C4.57 9.34 4.49 9.44 4.41 9.54L4.1 9.92C4.1 9.93 4.07 9.96 4.06 9.97L3.79 10.35C3.61 10.58 3.46 10.83 3.32 11.07C3.26 11.16 3.21 11.25 3.15 11.34C3.14 11.35 3.13 11.37 3.13 11.38L3 11.61C2.85 11.89 2.7 12.17 2.57 12.49L2.55 12.54C2.39 12.9 2.23 13.28 2.12 13.68L2.06 13.85C2.02 13.99 1.97 14.14 1.93 14.31L1.82 14.86C1.73 15.21 1.71 15.55 1.68 15.85L1.66 16.05C1.62 16.36 1.63 16.66 1.64 16.92C1.65 17 1.65 17.09 1.66 17.21C1.66 17.25 1.66 17.3 1.66 17.35C1.66 17.46 1.67 17.6 1.69 17.73L1.76 18.18C1.78 18.27 1.79 18.35 1.8 18.43C1.83 18.62 1.86 18.81 1.91 18.98L2.21 20C2.3 20.31 2.6 20.52 2.92 20.5C3.1 20.48 3.25 20.41 3.37 20.3C3.47 20.19 3.54 20.06 3.56 19.91L3.72 18.87C3.73 18.79 3.77 18.67 3.8 18.54C3.83 18.45 3.86 18.36 3.87 18.29L3.98 17.9C4 17.85 4.02 17.8 4.05 17.74C4.07 17.7 4.09 17.65 4.11 17.6C4.15 17.51 4.18 17.43 4.21 17.35C4.28 17.18 4.35 17.03 4.44 16.87C4.48 16.8 4.53 16.73 4.56 16.66C4.67 16.48 4.76 16.31 4.88 16.17C4.89 16.16 4.89 16.15 4.9 16.14L5.16 15.79C5.21 15.73 5.27 15.66 5.33 15.6C5.37 15.55 5.41 15.51 5.46 15.45C5.62 15.27 5.79 15.11 5.97 14.96L6.06 14.87C6.19 14.76 6.34 14.64 6.49 14.53C6.56 14.48 6.62 14.43 6.68 14.39C6.76 14.34 6.84 14.29 6.91 14.24C7.05 14.14 7.18 14.06 7.32 13.99L7.62 13.82L7.93 13.67C8.04 13.61 8.15 13.57 8.25 13.53C8.31 13.5 8.36 13.48 8.42 13.46C8.47 13.44 8.52 13.42 8.57 13.4C8.64 13.38 8.7 13.36 8.78 13.33L8.86 13.32C8.95 13.46 9.06 13.6 9.19 13.73L15.21 19.68L2.35 31.87C2.35 31.88 2.34 31.88 2.34 31.89C0.74 33.47 0.47 35.78 2.08 37.36C3.68 38.94 5.87 38.54 7.47 36.96C7.48 36.95 7.48 36.95 7.49 36.94L18.84 25.14C18.9 25.22 18.97 25.3 19.04 25.37L31.76 37.93C33.19 39.34 35.5 39.34 36.93 37.93C38.35 36.52 38.35 34.24 36.93 32.84L36.93 32.84ZM5.81 35.65C5.22 36.24 4.26 36.24 3.68 35.65C3.09 35.07 3.09 34.13 3.68 33.55C4.26 32.97 5.22 32.97 5.81 33.55C6.4 34.13 6.4 35.07 5.81 35.65L5.81 35.65ZM5.81 35.65" />
			</g>
		</g>
	</g>
</svg>