<svg version="1.2" baseProfile="tiny-ps" xmlns="http://www.w3.org/2000/svg" viewBox="0 0 38 41" width="38" height="41">
	<title>Module-1-Facts</title>
	<style>
		tspan { white-space:pre }
		.shp0 { fill: #484d52 } 
	</style>
	<g id="Module-1-Facts">
		<g id="Fact 1">
			<g id="Icon">
				<path id="Form 1" class="shp0" d="M33.67 11.96C32.97 16.71 26.39 17.66 26.39 16.12C26.39 14.57 26.86 5.67 24.39 4.96C21.92 4.24 22.86 0.56 21.57 0.2C20.59 -0.06 19.49 0 19 0.05C18.51 0 17.41 -0.06 16.43 0.2C15.14 0.56 16.08 4.24 13.61 4.96C11.14 5.67 11.61 14.57 11.61 16.12C11.61 17.66 5.03 16.71 4.32 11.96C3.62 7.21 -2.26 18.73 3.5 23.36C8.72 27.56 17.41 27.56 19 27.53C20.59 27.56 29.28 27.56 34.5 23.36C40.26 18.73 34.38 7.21 33.67 11.96L33.67 11.96ZM13.85 14.6C13.36 14.6 12.97 14.21 12.97 13.71C12.97 13.22 13.36 12.82 13.85 12.82C14.33 12.82 14.73 13.22 14.73 13.71C14.73 14.21 14.33 14.6 13.85 14.6L13.85 14.6ZM17.02 15.32C16.53 15.32 16.14 14.92 16.14 14.43C16.14 13.93 16.53 13.53 17.02 13.53C17.51 13.53 17.9 13.94 17.9 14.43C17.9 14.92 17.51 15.32 17.02 15.32L17.02 15.32ZM21.25 15.32C20.77 15.32 20.37 14.92 20.37 14.43C20.37 13.93 20.77 13.53 21.25 13.53C21.74 13.53 22.13 13.94 22.13 14.43C22.13 14.92 21.74 15.32 21.25 15.32L21.25 15.32ZM24.42 14.6C23.94 14.6 23.54 14.21 23.54 13.71C23.54 13.22 23.94 12.82 24.42 12.82C24.91 12.82 25.31 13.22 25.31 13.71C25.31 14.21 24.91 14.6 24.42 14.6L24.42 14.6ZM24.42 14.6M24.22 35.82C24.38 33.2 23.64 31.8 22.79 31.05C22.42 30.32 21.7 29.81 20.85 29.75C20.85 29.9 20.83 30.05 20.79 30.19C20.64 30.81 20.18 31.3 19.59 31.5C19.48 31.54 19.38 31.56 19.27 31.58C19.18 31.59 19.09 31.61 19 31.61C18.91 31.61 18.82 31.59 18.73 31.58C18.62 31.56 18.51 31.54 18.41 31.5C17.82 31.3 17.36 30.81 17.2 30.19C17.17 30.05 17.15 29.9 17.15 29.75C16.3 29.81 15.58 30.32 15.21 31.05C14.36 31.8 13.62 33.2 13.78 35.82C14.13 41.61 11.14 40.72 11.14 40.72C11.14 40.72 17.02 42.66 19 36.39C20.98 42.66 26.86 40.72 26.86 40.72C26.86 40.72 23.87 41.6 24.22 35.82L24.22 35.82ZM24.22 35.82" />
			</g>
		</g>
	</g>
</svg>