<svg width="54" height="54" xmlns="http://www.w3.org/2000/svg" version="1.2" baseProfile="tiny-ps">
 <title>Module-1-Facts</title>

 <g>
  <title>Layer 1</title>
  <g>
   <title>Module-1-Facts</title>
   <g id="svg_1">
    <g id="svg_2">
     <g id="svg_3">
      <path fill="#484d52" d="m39.96038,14.72c0,2.6 -2.13,4.72 -4.76,4.72c-2.63,0 -4.76,-2.12 -4.76,-4.72c0,-2.61 2.13,-4.72 4.76,-4.72c2.63,0 4.76,2.11 4.76,4.72l0,0zm0,0m-27.63,12.2c0,1.31 -1.06,2.37 -2.38,2.37c-1.31,0 -2.38,-1.06 -2.38,-2.37c0,-1.3 1.07,-2.36 2.38,-2.36c1.32,0 2.38,1.06 2.38,2.36l0,0zm0,0m-6.54,15.64c3.19,0 8.04,-0.82 12.72,-1.88c2.16,2.05 5.1,3.32 8.33,3.32c5.98,0 10.93,-4.3 11.91,-9.94c8.36,-3.41 14.8,-6.98 13.63,-10.66c-0.01,-0.03 -0.01,-0.06 -0.02,-0.08c-0.4,-0.94 -1.59,-1.35 -3.89,-1.35c-4.07,0 -10.41,1.3 -10.67,1.36c-0.44,0.09 -0.74,0.49 -0.7,0.93c0.04,0.44 0.41,0.78 0.85,0.79c2.82,0.07 5.24,0.67 5.53,1.16c-0.28,0.64 -2.22,1.81 -4.86,3.09c-1.24,-5.31 -6.04,-9.28 -11.78,-9.28c-6.68,0 -12.09,5.37 -12.09,11.99c0,1.8 0.42,3.5 1.13,5.04c-1.33,0.24 -2.57,0.41 -3.56,0.41c-0.94,0 -1.42,-0.15 -1.66,-0.26c0.06,-0.28 0.48,-1.27 3.16,-3.12c0.25,-0.15 0.41,-0.42 0.41,-0.73c0,-0.48 -0.39,-0.87 -0.86,-0.87l-0.02,0c-0.03,0 -0.06,0 -0.09,0c-0.05,0.01 -0.1,0.02 -0.14,0.03c-1.01,0.24 -8.99,2.28 -11.1,5.75c-0.51,0.85 -0.66,1.73 -0.44,2.61c0.4,1.52 2.59,1.69 4.21,1.69l0,0zm0,0" class="shp0" id="svg_4"/>
     </g>
    </g>
   </g>
  </g>
 </g>
</svg>