<svg width="54" height="54" xmlns="http://www.w3.org/2000/svg" baseProfile="tiny-ps" version="1.2">
 <title>Module-1-Facts</title>

 <g>
  <title>Layer 1</title>
  <g id="Module-1-Facts">
   <g id="Fact 1">
    <g id="Icon">
     <path fill="#484d52" d="m41.67017,18.45518c-0.7,4.75 -7.28,5.7 -7.28,4.16c0,-1.55 0.47,-10.45 -2,-11.16c-2.47,-0.72 -1.53,-4.4 -2.82,-4.76c-0.98,-0.26 -2.08,-0.2 -2.57,-0.15c-0.49,-0.05 -1.59,-0.11 -2.57,0.15c-1.29,0.36 -0.35,4.04 -2.82,4.76c-2.47,0.71 -2,9.61 -2,11.16c0,1.54 -6.58,0.59 -7.29,-4.16c-0.7,-4.75 -6.58,6.77 -0.82,11.4c5.22,4.2 13.91,4.2 15.5,4.17c1.59,0.02999 10.28,0.02999 15.5,-4.17c5.76,-4.63 -0.12,-16.15 -0.83,-11.4l0,0zm-19.82,2.64c-0.49,0 -0.88,-0.39 -0.88,-0.89c0,-0.49 0.39,-0.89 0.88,-0.89c0.48,0 0.88,0.4 0.88,0.89c0,0.5 -0.4,0.89 -0.88,0.89l0,0zm3.17,0.72c-0.49,0 -0.88,-0.4 -0.88,-0.89c0,-0.5 0.39,-0.9 0.88,-0.9c0.49,0 0.88,0.41 0.88,0.9c0,0.49 -0.39,0.89 -0.88,0.89l0,0zm4.23,0c-0.48,0 -0.88,-0.4 -0.88,-0.89c0,-0.5 0.4,-0.9 0.88,-0.9c0.49,0 0.88,0.41 0.88,0.9c0,0.49 -0.39,0.89 -0.88,0.89l0,0zm3.17,-0.72c-0.48,0 -0.88,-0.39 -0.88,-0.89c0,-0.49 0.4,-0.89 0.88,-0.89c0.49,0 0.89,0.4 0.89,0.89c0,0.5 -0.4,0.89 -0.89,0.89l0,0zm0,0m-0.2,21.22c0.16,-2.62 -0.58,-4.02 -1.43,-4.77c-0.37,-0.73 -1.09,-1.24 -1.94,-1.3c0,0.15 -0.02,0.3 -0.06,0.44c-0.15,0.62 -0.61,1.11 -1.2,1.31c-0.11,0.04 -0.21,0.06 -0.32,0.08c-0.09,0.01 -0.18,0.03 -0.27,0.03c-0.09,0 -0.18,-0.02 -0.27,-0.03c-0.11,-0.02 -0.22,-0.04 -0.32,-0.08c-0.59,-0.2 -1.05,-0.69 -1.21,-1.31c-0.03,-0.14 -0.05,-0.29 -0.05,-0.44c-0.85,0.06 -1.57,0.57 -1.94,1.3c-0.85,0.75 -1.59,2.15 -1.43,4.77c0.35,5.79 -2.64,4.9 -2.64,4.9c0,0 5.88,1.94 7.86,-4.33c1.98,6.27 7.86,4.33 7.86,4.33c0,0 -2.99,0.88 -2.64,-4.9l0,0zm0,0" class="shp0" id="Form 1"/>
    </g>
   </g>
  </g>
 </g>
</svg>