<svg version="1.2" baseProfile="tiny-ps" xmlns="http://www.w3.org/2000/svg" viewBox="0 0 51 34" width="51" height="34">
	<title>Module-1-Facts</title>
	<style>
		tspan { white-space:pre }
		.shp0 { fill: #484d52 } 
	</style>
	<g id="Module-1-Facts">
		<g id="Fact 3">
			<g id="Icon">
				<path id="Form 4" class="shp0" d="M38.46 4.72C38.46 7.32 36.33 9.44 33.7 9.44C31.07 9.44 28.94 7.32 28.94 4.72C28.94 2.11 31.07 0 33.7 0C36.33 0 38.46 2.11 38.46 4.72L38.46 4.72ZM38.46 4.72M10.83 16.92C10.83 18.23 9.77 19.29 8.45 19.29C7.14 19.29 6.07 18.23 6.07 16.92C6.07 15.62 7.14 14.56 8.45 14.56C9.77 14.56 10.83 15.62 10.83 16.92L10.83 16.92ZM10.83 16.92M4.29 32.56C7.48 32.56 12.33 31.74 17.01 30.68C19.17 32.73 22.11 34 25.34 34C31.32 34 36.27 29.7 37.25 24.06C45.61 20.65 52.05 17.08 50.88 13.4C50.87 13.37 50.87 13.34 50.86 13.32C50.46 12.38 49.27 11.97 46.97 11.97C42.9 11.97 36.56 13.27 36.3 13.33C35.86 13.42 35.56 13.82 35.6 14.26C35.64 14.7 36.01 15.04 36.45 15.05C39.27 15.12 41.69 15.72 41.98 16.21C41.7 16.85 39.76 18.02 37.12 19.3C35.88 13.99 31.08 10.02 25.34 10.02C18.66 10.02 13.25 15.39 13.25 22.01C13.25 23.81 13.67 25.51 14.38 27.05C13.05 27.29 11.81 27.46 10.82 27.46C9.88 27.46 9.4 27.31 9.16 27.2C9.22 26.92 9.64 25.93 12.32 24.08C12.57 23.93 12.73 23.66 12.73 23.35C12.73 22.87 12.34 22.48 11.87 22.48L11.85 22.48C11.82 22.48 11.79 22.48 11.76 22.48C11.71 22.49 11.66 22.5 11.62 22.51C10.61 22.75 2.63 24.79 0.52 28.26C0.01 29.11 -0.14 29.99 0.08 30.87C0.48 32.39 2.67 32.56 4.29 32.56L4.29 32.56ZM4.29 32.56" />
			</g>
		</g>
	</g>
</svg>