<svg version="1.2" baseProfile="tiny-ps" xmlns="http://www.w3.org/2000/svg" viewBox="0 0 36 35" width="36" height="35">
	<title>Main Nav</title>
	<style>
		tspan { white-space:pre }
		.shp0 { fill: #fdfdff } 
	</style>
	<g id="Main Nav">
		<g id="LOGO small">
			<path id="Logo" class="shp0" d="M9.09 22.2C8.56 21.67 8.36 21.93 8.24 22.05C5.15 25.13 2.41 32.56 3.86 31.84C9.13 29.2 10.01 29.98 13.09 26.9C13.21 26.78 13.49 26.59 12.94 26.04L9.09 22.2ZM9.09 22.2M25.72 22.16C25.58 21.72 25.87 21.5 26 21.37C32.8 14.03 37.13 4.25 33.92 1.05C30.74 -2.13 21.24 2.31 13.9 9.06C13.75 9.2 13.47 9.45 12.95 9.34L10.66 8.8C10.03 8.65 9.13 8.9 8.67 9.36L0.27 17.75C-0.19 18.21 -0.04 18.67 0.6 18.77L6.68 19.72C7.32 19.83 8.23 19.53 8.69 19.07C8.69 19.07 9 18.76 9.32 19.07C11.06 20.8 14.29 24.03 15.94 25.68C16.27 26.01 15.96 26.32 15.96 26.32C15.49 26.78 15.2 27.69 15.3 28.33L16.25 34.4C16.36 35.04 16.82 35.19 17.28 34.73L25.68 26.34C26.14 25.88 26.39 24.99 26.24 24.35L25.72 22.16ZM23.84 11.32C22.42 9.9 22.42 7.6 23.84 6.18C25.26 4.76 27.57 4.76 28.99 6.18C30.41 7.6 30.41 9.9 28.99 11.32C27.57 12.74 25.26 12.74 23.84 11.32L23.84 11.32ZM23.84 11.32" />
		</g>
	</g>
</svg>